HIERARCHY
ROOT hip
{
  OFFSET -6.65587 84.689 72.4528
  CHANNELS 6 Xposition Yposition Zposition Zrotation Xrotation Yrotation
  JOINT abdomen
  {
    OFFSET 0 20.6881 -0.73152
    CHANNELS 3 Zrotation Xrotation Yrotation
    JOINT chest
    {
      OFFSET 0 11.7043 -0.48768
      CHANNELS 3 Zrotation Xrotation Yrotation
      JOINT neck
      {
        OFFSET 0 22.1894 -2.19456
        CHANNELS 3 Zrotation Xrotation Yrotation
        JOINT head
        {
          OFFSET -0.24384 7.07133 1.2192
          CHANNELS 3 Zrotation Xrotation Yrotation
          JOINT leftEye
          {
            OFFSET 4.14528 8.04674 8.04672
            CHANNELS 3 Zrotation Xrotation Yrotation
            End Site
            {
              OFFSET 1 0 0
            }
          }
          JOINT rightEye
          {
            OFFSET -3.6576 8.04674 8.04672
            CHANNELS 3 Zrotation Xrotation Yrotation
            End Site
            {
              OFFSET 1 0 0
            }
          }
        }
      }
      JOINT rCollar
      {
        OFFSET -2.68224 19.2634 -4.8768
        CHANNELS 3 Zrotation Xrotation Yrotation
        JOINT rShldr
        {
          OFFSET -8.77824 -1.95073 1.46304
          CHANNELS 3 Zrotation Xrotation Yrotation
          JOINT rForeArm
          {
            OFFSET -28.1742 -1.7115 0.48768
            CHANNELS 3 Zrotation Xrotation Yrotation
            JOINT rHand
            {
              OFFSET -22.5879 0.773209 7.07136
              CHANNELS 3 Zrotation Xrotation Yrotation
              JOINT rThumb1
              {
                OFFSET -1.2192 -0.487915 3.41376
                CHANNELS 3 Zrotation Xrotation Yrotation
                JOINT rThumb2
                {
                  OFFSET -3.37035 -0.52449 3.41376
                  CHANNELS 3 Zrotation Xrotation Yrotation
                  End Site
                  {
                    OFFSET -1.78271 -1.18214 1.43049
                  }
                }
              }
              JOINT rIndex1
              {
                OFFSET -7.75947 0.938293 5.60832
                CHANNELS 3 Zrotation Xrotation Yrotation
                JOINT rIndex2
                {
                  OFFSET -2.54057 -0.884171 1.56538
                  CHANNELS 3 Zrotation Xrotation Yrotation
                  End Site
                  {
                    OFFSET -1.62519 -0.234802 1.16502
                  }
                }
              }
              JOINT rMid1
              {
                OFFSET -8.24714 1.18213 3.41376
                CHANNELS 3 Zrotation Xrotation Yrotation
                JOINT rMid2
                {
                  OFFSET -3.10165 -0.590103 1.0647
                  CHANNELS 3 Zrotation Xrotation Yrotation
                  End Site
                  {
                    OFFSET -2.48547 -0.328903 0.83742
                  }
                }
              }
              JOINT rRing1
              {
                OFFSET -8.82822 0.546677 1.51678
                CHANNELS 3 Zrotation Xrotation Yrotation
                JOINT rRing2
                {
                  OFFSET -2.60934 -0.819778 -0.0198488
                  CHANNELS 3 Zrotation Xrotation Yrotation
                  End Site
                  {
                    OFFSET -2.33842 -0.294052 0.168128
                  }
                }
              }
              JOINT rPinky1
              {
                OFFSET -8.27202 -0.0477905 -0.4584
                CHANNELS 3 Zrotation Xrotation Yrotation
                JOINT rPinky2
                {
                  OFFSET -1.82734 -0.647385 -0.700984
                  CHANNELS 3 Zrotation Xrotation Yrotation
                  End Site
                  {
                    OFFSET -1.69225 -0.51767 -0.607171
                  }
                }
              }
            }
          }
        }
      }
      JOINT lCollar
      {
        OFFSET 2.68224 19.2634 -4.8768
        CHANNELS 3 Zrotation Xrotation Yrotation
        JOINT lShldr
        {
          OFFSET 8.77824 -1.95073 1.46304
          CHANNELS 3 Zrotation Xrotation Yrotation
          JOINT lForeArm
          {
            OFFSET 28.1742 -1.7115 0.48768
            CHANNELS 3 Zrotation Xrotation Yrotation
            JOINT lHand
            {
              OFFSET 22.5879 0.773209 7.07136
              CHANNELS 3 Zrotation Xrotation Yrotation
              JOINT lThumb1
              {
                OFFSET 1.2192 -0.487915 3.41376
                CHANNELS 3 Zrotation Xrotation Yrotation
                JOINT lThumb2
                {
                  OFFSET 3.37035 -0.52449 3.41376
                  CHANNELS 3 Zrotation Xrotation Yrotation
                  End Site
                  {
                    OFFSET 1.78271 -1.18214 1.43049
                  }
                }
              }
              JOINT lIndex1
              {
                OFFSET 7.75947 0.938293 5.60832
                CHANNELS 3 Zrotation Xrotation Yrotation
                JOINT lIndex2
                {
                  OFFSET 2.54057 -0.884171 1.56538
                  CHANNELS 3 Zrotation Xrotation Yrotation
                  End Site
                  {
                    OFFSET 1.62519 -0.234802 1.16502
                  }
                }
              }
              JOINT lMid1
              {
                OFFSET 8.24714 1.18213 3.41376
                CHANNELS 3 Zrotation Xrotation Yrotation
                JOINT lMid2
                {
                  OFFSET 3.10165 -0.590103 1.0647
                  CHANNELS 3 Zrotation Xrotation Yrotation
                  End Site
                  {
                    OFFSET 2.48547 -0.328903 0.83742
                  }
                }
              }
              JOINT lRing1
              {
                OFFSET 8.82822 0.546677 1.51678
                CHANNELS 3 Zrotation Xrotation Yrotation
                JOINT lRing2
                {
                  OFFSET 2.60934 -0.819778 -0.0198488
                  CHANNELS 3 Zrotation Xrotation Yrotation
                  End Site
                  {
                    OFFSET 2.33842 -0.294052 0.168128
                  }
                }
              }
              JOINT lPinky1
              {
                OFFSET 8.27202 -0.0477905 -0.4584
                CHANNELS 3 Zrotation Xrotation Yrotation
                JOINT lPinky2
                {
                  OFFSET 1.82734 -0.647385 -0.700984
                  CHANNELS 3 Zrotation Xrotation Yrotation
                  End Site
                  {
                    OFFSET 1.69225 -0.51767 -0.607171
                  }
                }
              }
            }
          }
        }
      }
    }
  }
  JOINT rButtock
  {
    OFFSET -8.77824 4.35084 1.2192
    CHANNELS 3 Zrotation Xrotation Yrotation
    JOINT rThigh
    {
      OFFSET 0 -1.70687 -2.19456
      CHANNELS 3 Zrotation Xrotation Yrotation
      JOINT rShin
      {
        OFFSET 0 -36.8199 0.73152
        CHANNELS 3 Zrotation Xrotation Yrotation
        JOINT rFoot
        {
          OFFSET 0.73152 -45.1104 -5.12064
          CHANNELS 3 Zrotation Xrotation Yrotation
          End Site
          {
            OFFSET -1.1221 -3.69964 12.103
          }
        }
      }
    }
  }
  JOINT lButtock
  {
    OFFSET 8.77824 4.35084 1.2192
    CHANNELS 3 Zrotation Xrotation Yrotation
    JOINT lThigh
    {
      OFFSET 0 -1.70687 -2.19456
      CHANNELS 3 Zrotation Xrotation Yrotation
      JOINT lShin
      {
        OFFSET 0 -36.8199 0.73152
        CHANNELS 3 Zrotation Xrotation Yrotation
        JOINT lFoot
        {
          OFFSET -0.73152 -45.1104 -5.12064
          CHANNELS 3 Zrotation Xrotation Yrotation
          End Site
          {
            OFFSET 1.1221 -3.69964 12.103
          }
        }
      }
    }
  }
}
MOTION
Frames:	9
Frame Time:	0.00833333
0.810745 55.2231 -72.8867 5.37793 26.6215 3.13649 -1.63654 38.1364 -2.46078 1.28578 -14.2131 -0.691981 -7.28986 1.17936 -3.41377 16.8713 -61.8492 4.38645 -0 0 0 -0 0 0 2.84858e-013 -4.20703e-014 7.39553e-014 66.4678 20.1266 6.26918 -10.7657 -4.61609 19.2555 -0.307716 15.556 2.24252 -1.17888e-009 -2.50904e-009 -2.92674e-009 -2.06993e-009 -4.33884e-009 -5.03899e-009 -1.17886e-009 -2.50905e-009 -2.92674e-009 7.73091 5.47488 0.417314 -1.17888e-009 -2.50904e-009 -2.92673e-009 2.90554 0.965183 0.102902 -1.17888e-009 -2.50904e-009 -2.92673e-009 10.2786 0.731801 0.0259123 -1.17888e-009 -2.50904e-009 -2.92672e-009 2.22167 -0.733487 -0.20892 2.84854e-013 -4.20654e-014 7.36785e-014 -67.2625 37.4262 -8.53182 14.478 -7.34062 -26.5352 0.133169 -10.3455 1.47015 -2.83312e-009 1.47821e-009 6.30168e-010 -4.89594e-009 2.56136e-009 1.06984e-009 -2.83313e-009 1.47821e-009 6.30176e-010 -7.73091 5.47488 -0.417314 -2.83312e-009 1.47821e-009 6.30168e-010 -2.90554 0.965183 -0.102902 -2.83313e-009 1.47821e-009 6.30168e-010 -10.2786 0.731801 -0.0259123 -2.83312e-009 1.47821e-009 6.3016e-010 -2.22167 -0.733487 0.20892 -2.03217e-016 0 -3.88251e-019 -74.4844 -80.2754 -67.3692 -175.007 75.8689 176.355 -11.1857 -28.1583 -18.2855 2.03217e-016 0 3.88251e-019 -25.5251 -82.6448 -17.8632 165.688 85.4282 -166.277 -0.119309 -30.8111 -0.46742 
0.765944 54.9536 -72.4378 5.30024 26.1642 3.41181 -1.40822 38.1163 -2.70773 1.24447 -14.2883 -0.740106 -7.13388 0.95323 -3.39573 16.1616 -61.796 3.97389 -0 0 0 -0 0 0 1.89299e-013 -2.40561e-014 -2.49941e-014 65.6283 20.8968 8.10256 -11.1812 -4.87326 20.0748 -0.317517 15.7414 2.27117 -1.97693e-010 -1.93023e-009 -2.8269e-009 -3.74109e-010 -3.34149e-009 -4.88225e-009 -1.97682e-010 -1.93023e-009 -2.8269e-009 7.73091 5.47488 0.417314 -1.97696e-010 -1.93023e-009 -2.8269e-009 2.90554 0.965183 0.102902 -1.97689e-010 -1.93023e-009 -2.8269e-009 10.2786 0.731801 0.0259123 -1.97699e-010 -1.93023e-009 -2.82689e-009 2.22167 -0.733487 -0.20892 1.89277e-013 -2.40498e-014 -2.53016e-014 -66.36 36.969 -10.865 14.5028 -7.35094 -26.6094 0.123183 -9.93485 1.41068 -2.11499e-009 1.27172e-009 9.7466e-010 -3.65801e-009 2.20398e-009 1.67233e-009 -2.115e-009 1.27172e-009 9.74668e-010 -7.73091 5.47488 -0.417314 -2.11499e-009 1.27172e-009 9.74661e-010 -2.90554 0.965183 -0.102902 -2.115e-009 1.27172e-009 9.7466e-010 -10.2786 0.731801 -0.0259123 -2.11498e-009 1.27172e-009 9.74656e-010 -2.22167 -0.733487 0.20892 -2.03217e-016 0 -3.88251e-019 -73.8879 -79.5721 -67.0347 -175.221 75.0107 176.554 -10.881 -27.7483 -17.9291 2.03217e-016 0 3.88251e-019 -22.9389 -82.2642 -15.1062 167.376 84.7696 -167.963 -0.127546 -31.0033 -0.478812 
0.762111 54.7707 -71.9173 5.21755 25.7048 3.65536 -1.17992 38.0449 -2.96312 1.21035 -14.3429 -0.789999 -6.99089 0.695447 -3.37922 15.4845 -61.7022 3.57937 -0 0 0 -0 0 0 8.08228e-014 -1.96665e-015 -1.15049e-013 64.6983 21.6134 9.99307 -11.712 -5.22761 21.0987 -0.318737 15.7621 2.27441 7.34176e-010 -1.14717e-009 -2.4284e-009 1.24017e-009 -1.98922e-009 -4.20878e-009 7.34185e-010 -1.14717e-009 -2.4284e-009 7.73091 5.47488 0.417314 7.34175e-010 -1.14717e-009 -2.4284e-009 2.90554 0.965183 0.102902 7.34182e-010 -1.14717e-009 -2.4284e-009 10.2786 0.731801 0.0259123 7.34169e-010 -1.14717e-009 -2.42839e-009 2.22167 -0.733487 -0.20892 8.07855e-014 -1.95939e-015 -1.15383e-013 -65.4613 36.5669 -13.112 14.6376 -7.46294 -26.8871 0.116217 -9.63649 1.36756 -1.25418e-009 9.54174e-010 1.19524e-009 -2.17312e-009 1.6538e-009 2.0613e-009 -1.25419e-009 9.54174e-010 1.19525e-009 -7.73091 5.47488 -0.417314 -1.25419e-009 9.54173e-010 1.19524e-009 -2.90554 0.965183 -0.102902 -1.2542e-009 9.54172e-010 1.19524e-009 -10.2786 0.731801 -0.0259123 -1.25418e-009 9.54172e-010 1.19524e-009 -2.22167 -0.733487 0.20892 -2.03217e-016 0 -3.88251e-019 -72.9731 -78.9077 -66.372 -175.397 74.221 176.716 -10.5958 -27.3706 -17.5875 2.03217e-016 0 3.88251e-019 -20.2295 -81.8619 -12.2337 168.651 84.1256 -169.237 -0.125418 -31.1643 -0.47378 
0.732603 54.5648 -71.3996 5.15105 25.3175 3.79591 -1.03745 37.8524 -3.1612 1.20425 -14.3534 -0.829729 -6.95607 0.456806 -3.37441 15.2216 -61.6914 3.45308 -0 0 0 -0 0 0 6.18445e-015 1.27187e-014 -1.53164e-013 63.6395 22.355 11.9541 -12.4049 -5.73663 22.3962 -0.295572 15.2894 2.20183 1.24652e-009 -5.727e-010 -2.00805e-009 2.13006e-009 -9.96926e-010 -3.49094e-009 1.24653e-009 -5.727e-010 -2.00805e-009 7.73091 5.47488 0.417314 1.24652e-009 -5.72703e-010 -2.00806e-009 2.90554 0.965183 0.102902 1.24653e-009 -5.72703e-010 -2.00805e-009 10.2786 0.731801 0.0259123 1.24652e-009 -5.72701e-010 -2.00805e-009 2.22167 -0.733487 -0.20892 6.14057e-015 1.27257e-014 -1.53511e-013 -64.5001 36.3308 -15.2321 14.975 -7.76873 -27.5374 0.116982 -9.70716 1.37759 -7.25295e-010 6.28048e-010 1.26102e-009 -1.26086e-009 1.08868e-009 2.17928e-009 -7.25309e-010 6.28048e-010 1.26103e-009 -7.73091 5.47488 -0.417314 -7.25302e-010 6.28047e-010 1.26102e-009 -2.90554 0.965183 -0.102902 -7.25315e-010 6.28048e-010 1.26102e-009 -10.2786 0.731801 -0.0259123 -7.25294e-010 6.28047e-010 1.26102e-009 -2.22167 -0.733487 0.20892 -2.03217e-016 0 -3.88251e-019 -72.0368 -78.3846 -65.6581 -175.533 73.5499 176.839 -10.3321 -27.1094 -17.2336 2.03217e-016 0 3.88251e-019 -17.2971 -81.5 -9.15686 169.568 83.5473 -170.147 -0.219653 -31.289 -0.620177 
0.615323 54.2604 -71.0475 5.11369 25.0339 3.7683 -1.0571 37.4937 -3.2459 1.24978 -14.2963 -0.848489 -7.11222 0.225005 -3.39144 15.6436 -61.7637 3.76435 -0 0 0 -0 0 0 -2.33491e-014 1.73417e-014 -1.0862e-013 62.4302 23.1814 14.0148 -13.2264 -6.35321 24.0118 -0.244613 14.1037 2.02217 1.04633e-009 -2.3537e-010 -1.48219e-009 1.78992e-009 -4.13972e-010 -2.58039e-009 1.04634e-009 -2.35369e-010 -1.4822e-009 7.73091 5.47488 0.417314 1.04633e-009 -2.35372e-010 -1.4822e-009 2.90554 0.965183 0.102902 1.04634e-009 -2.35373e-010 -1.4822e-009 10.2786 0.731801 0.0259123 1.04633e-009 -2.35371e-010 -1.48219e-009 2.22167 -0.733487 -0.20892 -2.33812e-014 1.73463e-014 -1.08969e-013 -63.4736 36.3431 -17.2094 15.4733 -8.20146 -28.5994 0.13037 -10.3192 1.46593 -6.71607e-010 2.48559e-010 1.00993e-009 -1.1674e-009 4.32399e-010 1.74455e-009 -6.71619e-010 2.48559e-010 1.00993e-009 -7.73091 5.47488 -0.417314 -6.71613e-010 2.48558e-010 1.00992e-009 -2.90554 0.965183 -0.102902 -6.71624e-010 2.4856e-010 1.00992e-009 -10.2786 0.731801 -0.0259123 -6.71606e-010 2.48559e-010 1.00993e-009 -2.22167 -0.733487 0.20892 -2.03217e-016 0 -3.88251e-019 -71.3046 -78.082 -65.0979 -175.637 72.9894 176.929 -10.0559 -26.9943 -16.8017 2.03217e-016 0 3.88251e-019 -13.7934 -81.2267 -5.5109 170.255 83.0256 -170.819 -0.4541 -31.3697 -0.985871 
0.575555 54.1214 -70.5769 5.088 24.8104 3.62743 -1.175 37.0151 -3.26551 1.3299 -14.1898 -0.855168 -7.38973 -0.0184171 -3.42243 16.4938 -61.8627 4.34818 -0 0 0 -0 0 0 -3.23141e-014 1.78905e-014 -1.07903e-014 61.0797 24.0253 16.1667 -14.1376 -7.04908 25.9054 -0.185698 12.4239 1.77233 3.9581e-010 5.78231e-011 -7.55683e-010 6.73981e-010 9.38313e-011 -1.31665e-009 3.95813e-010 5.78241e-011 -7.557e-010 7.73091 5.47488 0.417314 3.95811e-010 5.78202e-011 -7.55692e-010 2.90554 0.965183 0.102902 3.95823e-010 5.78207e-011 -7.55691e-010 10.2786 0.731801 0.0259123 3.95807e-010 5.78226e-011 -7.55684e-010 2.22167 -0.733487 -0.20892 -3.2321e-014 1.78911e-014 -1.11288e-014 -62.3697 36.5308 -19.0924 16.0845 -8.72698 -29.9895 0.156275 -11.301 1.60881 -8.34429e-010 -2.14908e-010 5.09711e-010 -1.44643e-009 -3.68694e-010 8.76552e-010 -8.34438e-010 -2.1491e-010 5.09718e-010 -7.73091 5.47488 -0.417314 -8.34432e-010 -2.14909e-010 5.09704e-010 -2.90554 0.965183 -0.102902 -8.34441e-010 -2.14908e-010 5.09709e-010 -10.2786 0.731801 -0.0259123 -8.34426e-010 -2.14907e-010 5.09711e-010 -2.22167 -0.733487 0.20892 -2.03217e-016 0 -3.88251e-019 -70.5498 -77.927 -64.4782 -175.717 72.52 176.994 -9.77422 -26.9781 -16.3235 2.03217e-016 0 3.88251e-019 -9.85851 -80.976 -1.43597 170.8 82.5423 -171.345 -0.766907 -31.4099 -1.47373 
0.531637 54.054 -70.1025 5.0491 24.6087 3.48226 -1.26873 36.4842 -3.30954 1.40455 -14.0731 -0.867345 -7.65501 -0.231904 -3.4504 17.3598 -62.0297 4.95114 -0 0 0 -0 0 0 -2.76581e-014 1.58549e-014 9.32424e-014 59.6025 24.7771 18.3642 -15.161 -7.90046 28.0246 -0.135168 10.5785 1.50291 -2.42407e-010 2.26355e-010 -8.81172e-011 -4.20685e-010 3.86907e-010 -1.53806e-010 -2.42407e-010 2.26356e-010 -8.81402e-011 7.73091 5.47488 0.417314 -2.42406e-010 2.26353e-010 -8.81246e-011 2.90554 0.965183 0.102902 -2.42393e-010 2.26354e-010 -8.81265e-011 10.2786 0.731801 0.0259123 -2.42407e-010 2.26356e-010 -8.81182e-011 2.22167 -0.733487 -0.20892 -2.76459e-014 1.58517e-014 9.29214e-014 -61.1103 36.7709 -20.9372 16.8703 -9.47218 -31.6994 0.190356 -12.3931 1.76935 -1.0854e-009 -6.38631e-010 7.4225e-011 -1.8788e-009 -1.10285e-009 1.19608e-010 -1.08541e-009 -6.38633e-010 7.42318e-011 -7.73091 5.47488 -0.417314 -1.0854e-009 -6.38632e-010 7.42138e-011 -2.90554 0.965183 -0.102902 -1.08541e-009 -6.38631e-010 7.42227e-011 -10.2786 0.731801 -0.0259123 -1.0854e-009 -6.38629e-010 7.42232e-011 -2.22167 -0.733487 0.20892 -2.03217e-016 0 -3.88251e-019 -69.3607 -77.7918 -63.4181 -175.773 72.1742 177.039 -9.54937 -27.031 -15.9177 2.03217e-016 0 3.88251e-019 -6.13285 -80.6545 2.39213 171.205 82.1349 -171.728 -1.10708 -31.4212 -2.00452 
0.482611 54.0432 -69.6087 4.97369 24.3905 3.44111 -1.21948 35.9684 -3.46524 1.43378 -13.9851 -0.902572 -7.7742 -0.373917 -3.45837 17.8278 -62.3101 5.31839 -0 0 0 -0 0 0 -1.63286e-014 1.27249e-014 1.56394e-013 58.0342 25.3348 20.551 -16.3065 -8.97523 30.3226 -0.098073 8.89675 1.26061 -4.05683e-010 1.89704e-010 2.60917e-010 -6.97025e-010 3.25676e-010 4.54067e-010 -4.05685e-010 1.89705e-010 2.60891e-010 7.73091 5.47488 0.417314 -4.05683e-010 1.89702e-010 2.6091e-010 2.90554 0.965183 0.102902 -4.05669e-010 1.89704e-010 2.60907e-010 10.2786 0.731801 0.0259123 -4.05682e-010 1.89706e-010 2.60917e-010 2.22167 -0.733487 -0.20892 -1.63228e-014 1.27199e-014 1.56096e-013 -59.636 36.9398 -22.7875 17.8705 -10.5481 -33.7303 0.223239 -13.3366 1.90929 -1.29617e-009 -8.98888e-010 1.73181e-011 -2.24534e-009 -1.55832e-009 1.80528e-011 -1.29618e-009 -8.9889e-010 1.73245e-011 -7.73091 5.47488 -0.417314 -1.29617e-009 -8.98889e-010 1.73054e-011 -2.90554 0.965183 -0.102902 -1.29618e-009 -8.98888e-010 1.73157e-011 -10.2786 0.731801 -0.0259123 -1.29617e-009 -8.98886e-010 1.73149e-011 -2.22167 -0.733487 0.20892 -2.03217e-016 0 -3.88251e-019 -67.3829 -77.5413 -61.5949 -175.803 71.9844 177.064 -9.4449 -27.1241 -15.7038 2.03217e-016 0 3.88251e-019 -3.28974 -80.1962 5.26507 171.469 81.8406 -171.971 -1.42376 -31.4164 -2.49911 
0.451732 54.0772 -69.0868 4.84871 24.1757 3.57776 -0.954297 35.4626 -3.81723 1.40153 -13.9498 -0.979368 -7.66441 -0.417113 -3.43699 17.67 -62.7773 5.31025 -0 0 0 -0 0 0 1.29479e-014 8.30121e-015 1.62314e-013 56.4247 25.7498 22.7005 -17.5295 -10.2209 32.8992 -0.0644515 7.29659 1.03127 2.01869e-010 -9.3939e-011 9.93831e-011 3.55496e-010 -1.62107e-010 1.72549e-010 2.01866e-010 -9.39398e-011 9.93609e-011 7.73091 5.47488 0.417314 2.01868e-010 -9.39387e-011 9.93768e-011 2.90554 0.965183 0.102902 2.01881e-010 -9.39372e-011 9.93752e-011 10.2786 0.731801 0.0259123 2.0187e-010 -9.39361e-011 9.93851e-011 2.22167 -0.733487 -0.20892 1.28969e-014 8.29719e-015 1.62049e-013 -57.9772 37.1347 -24.5761 19.0613 -11.9344 -36.2779 0.250815 -14.1088 2.02438 -1.5169e-009 -9.62881e-010 6.37969e-010 -2.63626e-009 -1.68309e-009 1.08842e-009 -1.5169e-009 -9.62879e-010 6.37974e-010 -7.73091 5.47488 -0.417314 -1.5169e-009 -9.62881e-010 6.37959e-010 -2.90554 0.965183 -0.102902 -1.5169e-009 -9.62881e-010 6.37967e-010 -10.2786 0.731801 -0.0259123 -1.5169e-009 -9.62879e-010 6.37964e-010 -2.22167 -0.733487 0.20892 -2.03217e-016 0 -3.88251e-019 -64.8475 -77.1005 -59.2495 -175.811 71.953 177.075 -9.49028 -27.2503 -15.7341 2.03217e-016 0 3.88251e-019 -1.63961 -79.6503 6.84875 171.606 81.671 -172.09 -1.71515 -31.3934 -2.95436 
